<?xml version="1.0" encoding="utf-8"?>
<svg xmlns="http://www.w3.org/2000/svg" xmlns:xlink="http://www.w3.org/1999/xlink" width="600" height="400" viewBox="0 0 2400 1600">
<defs>
  <clipPath id="clip520">
    <rect x="0" y="0" width="2400" height="1600"/>
  </clipPath>
</defs>
<path clip-path="url(#clip520)" d="M0 1600 L2400 1600 L2400 0 L0 0  Z" fill="#ffffff" fill-rule="evenodd" fill-opacity="1"/>
<defs>
  <clipPath id="clip521">
    <rect x="480" y="0" width="1681" height="1600"/>
  </clipPath>
</defs>
<path clip-path="url(#clip520)" d="M156.112 1486.45 L2352.76 1486.45 L2352.76 47.2441 L156.112 47.2441  Z" fill="#ffffff" fill-rule="evenodd" fill-opacity="1"/>
<defs>
  <clipPath id="clip522">
    <rect x="156" y="47" width="2198" height="1440"/>
  </clipPath>
</defs>
<polyline clip-path="url(#clip522)" style="stroke:#000000; stroke-linecap:round; stroke-linejoin:round; stroke-width:2; stroke-opacity:0.1; fill:none" points="218.281,1486.45 218.281,47.2441 "/>
<polyline clip-path="url(#clip522)" style="stroke:#000000; stroke-linecap:round; stroke-linejoin:round; stroke-width:2; stroke-opacity:0.1; fill:none" points="588.336,1486.45 588.336,47.2441 "/>
<polyline clip-path="url(#clip522)" style="stroke:#000000; stroke-linecap:round; stroke-linejoin:round; stroke-width:2; stroke-opacity:0.1; fill:none" points="958.39,1486.45 958.39,47.2441 "/>
<polyline clip-path="url(#clip522)" style="stroke:#000000; stroke-linecap:round; stroke-linejoin:round; stroke-width:2; stroke-opacity:0.1; fill:none" points="1328.44,1486.45 1328.44,47.2441 "/>
<polyline clip-path="url(#clip522)" style="stroke:#000000; stroke-linecap:round; stroke-linejoin:round; stroke-width:2; stroke-opacity:0.1; fill:none" points="1698.5,1486.45 1698.5,47.2441 "/>
<polyline clip-path="url(#clip522)" style="stroke:#000000; stroke-linecap:round; stroke-linejoin:round; stroke-width:2; stroke-opacity:0.1; fill:none" points="2068.55,1486.45 2068.55,47.2441 "/>
<polyline clip-path="url(#clip522)" style="stroke:#000000; stroke-linecap:round; stroke-linejoin:round; stroke-width:2; stroke-opacity:0.1; fill:none" points="156.112,1445.72 2352.76,1445.72 "/>
<polyline clip-path="url(#clip522)" style="stroke:#000000; stroke-linecap:round; stroke-linejoin:round; stroke-width:2; stroke-opacity:0.1; fill:none" points="156.112,1174.17 2352.76,1174.17 "/>
<polyline clip-path="url(#clip522)" style="stroke:#000000; stroke-linecap:round; stroke-linejoin:round; stroke-width:2; stroke-opacity:0.1; fill:none" points="156.112,902.62 2352.76,902.62 "/>
<polyline clip-path="url(#clip522)" style="stroke:#000000; stroke-linecap:round; stroke-linejoin:round; stroke-width:2; stroke-opacity:0.1; fill:none" points="156.112,631.072 2352.76,631.072 "/>
<polyline clip-path="url(#clip522)" style="stroke:#000000; stroke-linecap:round; stroke-linejoin:round; stroke-width:2; stroke-opacity:0.1; fill:none" points="156.112,359.524 2352.76,359.524 "/>
<polyline clip-path="url(#clip522)" style="stroke:#000000; stroke-linecap:round; stroke-linejoin:round; stroke-width:2; stroke-opacity:0.1; fill:none" points="156.112,87.9763 2352.76,87.9763 "/>
<polyline clip-path="url(#clip520)" style="stroke:#000000; stroke-linecap:round; stroke-linejoin:round; stroke-width:4; stroke-opacity:1; fill:none" points="156.112,1486.45 2352.76,1486.45 "/>
<polyline clip-path="url(#clip520)" style="stroke:#000000; stroke-linecap:round; stroke-linejoin:round; stroke-width:4; stroke-opacity:1; fill:none" points="218.281,1486.45 218.281,1467.55 "/>
<polyline clip-path="url(#clip520)" style="stroke:#000000; stroke-linecap:round; stroke-linejoin:round; stroke-width:4; stroke-opacity:1; fill:none" points="588.336,1486.45 588.336,1467.55 "/>
<polyline clip-path="url(#clip520)" style="stroke:#000000; stroke-linecap:round; stroke-linejoin:round; stroke-width:4; stroke-opacity:1; fill:none" points="958.39,1486.45 958.39,1467.55 "/>
<polyline clip-path="url(#clip520)" style="stroke:#000000; stroke-linecap:round; stroke-linejoin:round; stroke-width:4; stroke-opacity:1; fill:none" points="1328.44,1486.45 1328.44,1467.55 "/>
<polyline clip-path="url(#clip520)" style="stroke:#000000; stroke-linecap:round; stroke-linejoin:round; stroke-width:4; stroke-opacity:1; fill:none" points="1698.5,1486.45 1698.5,1467.55 "/>
<polyline clip-path="url(#clip520)" style="stroke:#000000; stroke-linecap:round; stroke-linejoin:round; stroke-width:4; stroke-opacity:1; fill:none" points="2068.55,1486.45 2068.55,1467.55 "/>
<path clip-path="url(#clip520)" d="M188.224 1532.02 L217.899 1532.02 L217.899 1535.95 L188.224 1535.95 L188.224 1532.02 Z" fill="#000000" fill-rule="nonzero" fill-opacity="1" /><path clip-path="url(#clip520)" d="M232.02 1544.91 L248.339 1544.91 L248.339 1548.85 L226.395 1548.85 L226.395 1544.91 Q229.057 1542.16 233.64 1537.53 Q238.246 1532.88 239.427 1531.53 Q241.672 1529.01 242.552 1527.27 Q243.455 1525.51 243.455 1523.82 Q243.455 1521.07 241.51 1519.33 Q239.589 1517.6 236.487 1517.6 Q234.288 1517.6 231.834 1518.36 Q229.404 1519.13 226.626 1520.68 L226.626 1515.95 Q229.45 1514.82 231.904 1514.24 Q234.358 1513.66 236.395 1513.66 Q241.765 1513.66 244.959 1516.35 Q248.154 1519.03 248.154 1523.52 Q248.154 1525.65 247.344 1527.57 Q246.557 1529.47 244.45 1532.07 Q243.871 1532.74 240.77 1535.95 Q237.668 1539.15 232.02 1544.91 Z" fill="#000000" fill-rule="nonzero" fill-opacity="1" /><path clip-path="url(#clip520)" d="M558.093 1532.02 L587.769 1532.02 L587.769 1535.95 L558.093 1535.95 L558.093 1532.02 Z" fill="#000000" fill-rule="nonzero" fill-opacity="1" /><path clip-path="url(#clip520)" d="M598.671 1544.91 L606.31 1544.91 L606.31 1518.55 L598 1520.21 L598 1515.95 L606.264 1514.29 L610.94 1514.29 L610.94 1544.91 L618.579 1544.91 L618.579 1548.85 L598.671 1548.85 L598.671 1544.91 Z" fill="#000000" fill-rule="nonzero" fill-opacity="1" /><path clip-path="url(#clip520)" d="M958.39 1517.37 Q954.779 1517.37 952.951 1520.93 Q951.145 1524.47 951.145 1531.6 Q951.145 1538.71 952.951 1542.27 Q954.779 1545.82 958.39 1545.82 Q962.025 1545.82 963.83 1542.27 Q965.659 1538.71 965.659 1531.6 Q965.659 1524.47 963.83 1520.93 Q962.025 1517.37 958.39 1517.37 M958.39 1513.66 Q964.201 1513.66 967.256 1518.27 Q970.335 1522.85 970.335 1531.6 Q970.335 1540.33 967.256 1544.94 Q964.201 1549.52 958.39 1549.52 Q952.58 1549.52 949.502 1544.94 Q946.446 1540.33 946.446 1531.6 Q946.446 1522.85 949.502 1518.27 Q952.58 1513.66 958.39 1513.66 Z" fill="#000000" fill-rule="nonzero" fill-opacity="1" /><path clip-path="url(#clip520)" d="M1318.83 1544.91 L1326.47 1544.91 L1326.47 1518.55 L1318.16 1520.21 L1318.16 1515.95 L1326.42 1514.29 L1331.1 1514.29 L1331.1 1544.91 L1338.73 1544.91 L1338.73 1548.85 L1318.83 1548.85 L1318.83 1544.91 Z" fill="#000000" fill-rule="nonzero" fill-opacity="1" /><path clip-path="url(#clip520)" d="M1693.15 1544.91 L1709.47 1544.91 L1709.47 1548.85 L1687.53 1548.85 L1687.53 1544.91 Q1690.19 1542.16 1694.77 1537.53 Q1699.38 1532.88 1700.56 1531.53 Q1702.81 1529.01 1703.68 1527.27 Q1704.59 1525.51 1704.59 1523.82 Q1704.59 1521.07 1702.64 1519.33 Q1700.72 1517.6 1697.62 1517.6 Q1695.42 1517.6 1692.97 1518.36 Q1690.54 1519.13 1687.76 1520.68 L1687.76 1515.95 Q1690.58 1514.82 1693.04 1514.24 Q1695.49 1513.66 1697.53 1513.66 Q1702.9 1513.66 1706.09 1516.35 Q1709.29 1519.03 1709.29 1523.52 Q1709.29 1525.65 1708.48 1527.57 Q1707.69 1529.47 1705.58 1532.07 Q1705 1532.74 1701.9 1535.95 Q1698.8 1539.15 1693.15 1544.91 Z" fill="#000000" fill-rule="nonzero" fill-opacity="1" /><path clip-path="url(#clip520)" d="M2072.8 1530.21 Q2076.16 1530.93 2078.03 1533.2 Q2079.93 1535.47 2079.93 1538.8 Q2079.93 1543.92 2076.41 1546.72 Q2072.89 1549.52 2066.41 1549.52 Q2064.24 1549.52 2061.92 1549.08 Q2059.63 1548.66 2057.18 1547.81 L2057.18 1543.29 Q2059.12 1544.43 2061.44 1545.01 Q2063.75 1545.58 2066.27 1545.58 Q2070.67 1545.58 2072.96 1543.85 Q2075.28 1542.11 2075.28 1538.8 Q2075.28 1535.75 2073.13 1534.03 Q2071 1532.3 2067.18 1532.3 L2063.15 1532.3 L2063.15 1528.45 L2067.36 1528.45 Q2070.81 1528.45 2072.64 1527.09 Q2074.47 1525.7 2074.47 1523.11 Q2074.47 1520.45 2072.57 1519.03 Q2070.7 1517.6 2067.18 1517.6 Q2065.26 1517.6 2063.06 1518.01 Q2060.86 1518.43 2058.22 1519.31 L2058.22 1515.14 Q2060.88 1514.4 2063.2 1514.03 Q2065.53 1513.66 2067.59 1513.66 Q2072.92 1513.66 2076.02 1516.09 Q2079.12 1518.5 2079.12 1522.62 Q2079.12 1525.49 2077.48 1527.48 Q2075.83 1529.45 2072.8 1530.21 Z" fill="#000000" fill-rule="nonzero" fill-opacity="1" /><polyline clip-path="url(#clip520)" style="stroke:#000000; stroke-linecap:round; stroke-linejoin:round; stroke-width:4; stroke-opacity:1; fill:none" points="156.112,1486.45 156.112,47.2441 "/>
<polyline clip-path="url(#clip520)" style="stroke:#000000; stroke-linecap:round; stroke-linejoin:round; stroke-width:4; stroke-opacity:1; fill:none" points="156.112,1445.72 175.01,1445.72 "/>
<polyline clip-path="url(#clip520)" style="stroke:#000000; stroke-linecap:round; stroke-linejoin:round; stroke-width:4; stroke-opacity:1; fill:none" points="156.112,1174.17 175.01,1174.17 "/>
<polyline clip-path="url(#clip520)" style="stroke:#000000; stroke-linecap:round; stroke-linejoin:round; stroke-width:4; stroke-opacity:1; fill:none" points="156.112,902.62 175.01,902.62 "/>
<polyline clip-path="url(#clip520)" style="stroke:#000000; stroke-linecap:round; stroke-linejoin:round; stroke-width:4; stroke-opacity:1; fill:none" points="156.112,631.072 175.01,631.072 "/>
<polyline clip-path="url(#clip520)" style="stroke:#000000; stroke-linecap:round; stroke-linejoin:round; stroke-width:4; stroke-opacity:1; fill:none" points="156.112,359.524 175.01,359.524 "/>
<polyline clip-path="url(#clip520)" style="stroke:#000000; stroke-linecap:round; stroke-linejoin:round; stroke-width:4; stroke-opacity:1; fill:none" points="156.112,87.9763 175.01,87.9763 "/>
<path clip-path="url(#clip520)" d="M62.9365 1431.51 Q59.3254 1431.51 57.4967 1435.08 Q55.6912 1438.62 55.6912 1445.75 Q55.6912 1452.86 57.4967 1456.42 Q59.3254 1459.96 62.9365 1459.96 Q66.5707 1459.96 68.3763 1456.42 Q70.205 1452.86 70.205 1445.75 Q70.205 1438.62 68.3763 1435.08 Q66.5707 1431.51 62.9365 1431.51 M62.9365 1427.81 Q68.7467 1427.81 71.8022 1432.42 Q74.8809 1437 74.8809 1445.75 Q74.8809 1454.48 71.8022 1459.08 Q68.7467 1463.67 62.9365 1463.67 Q57.1264 1463.67 54.0477 1459.08 Q50.9921 1454.48 50.9921 1445.75 Q50.9921 1437 54.0477 1432.42 Q57.1264 1427.81 62.9365 1427.81 Z" fill="#000000" fill-rule="nonzero" fill-opacity="1" /><path clip-path="url(#clip520)" d="M83.0984 1457.12 L87.9827 1457.12 L87.9827 1463 L83.0984 1463 L83.0984 1457.12 Z" fill="#000000" fill-rule="nonzero" fill-opacity="1" /><path clip-path="url(#clip520)" d="M108.168 1431.51 Q104.557 1431.51 102.728 1435.08 Q100.922 1438.62 100.922 1445.75 Q100.922 1452.86 102.728 1456.42 Q104.557 1459.96 108.168 1459.96 Q111.802 1459.96 113.608 1456.42 Q115.436 1452.86 115.436 1445.75 Q115.436 1438.62 113.608 1435.08 Q111.802 1431.51 108.168 1431.51 M108.168 1427.81 Q113.978 1427.81 117.033 1432.42 Q120.112 1437 120.112 1445.75 Q120.112 1454.48 117.033 1459.08 Q113.978 1463.67 108.168 1463.67 Q102.358 1463.67 99.2789 1459.08 Q96.2234 1454.48 96.2234 1445.75 Q96.2234 1437 99.2789 1432.42 Q102.358 1427.81 108.168 1427.81 Z" fill="#000000" fill-rule="nonzero" fill-opacity="1" /><path clip-path="url(#clip520)" d="M63.9319 1159.97 Q60.3208 1159.97 58.4921 1163.53 Q56.6865 1167.07 56.6865 1174.2 Q56.6865 1181.31 58.4921 1184.87 Q60.3208 1188.42 63.9319 1188.42 Q67.5661 1188.42 69.3717 1184.87 Q71.2004 1181.31 71.2004 1174.2 Q71.2004 1167.07 69.3717 1163.53 Q67.5661 1159.97 63.9319 1159.97 M63.9319 1156.26 Q69.742 1156.26 72.7976 1160.87 Q75.8763 1165.45 75.8763 1174.2 Q75.8763 1182.93 72.7976 1187.54 Q69.742 1192.12 63.9319 1192.12 Q58.1217 1192.12 55.043 1187.54 Q51.9875 1182.93 51.9875 1174.2 Q51.9875 1165.45 55.043 1160.87 Q58.1217 1156.26 63.9319 1156.26 Z" fill="#000000" fill-rule="nonzero" fill-opacity="1" /><path clip-path="url(#clip520)" d="M84.0938 1185.57 L88.978 1185.57 L88.978 1191.45 L84.0938 1191.45 L84.0938 1185.57 Z" fill="#000000" fill-rule="nonzero" fill-opacity="1" /><path clip-path="url(#clip520)" d="M99.2095 1156.89 L117.566 1156.89 L117.566 1160.82 L103.492 1160.82 L103.492 1169.3 Q104.51 1168.95 105.529 1168.79 Q106.547 1168.6 107.566 1168.6 Q113.353 1168.6 116.733 1171.77 Q120.112 1174.94 120.112 1180.36 Q120.112 1185.94 116.64 1189.04 Q113.168 1192.12 106.848 1192.12 Q104.672 1192.12 102.404 1191.75 Q100.159 1191.38 97.7511 1190.64 L97.7511 1185.94 Q99.8345 1187.07 102.057 1187.63 Q104.279 1188.18 106.756 1188.18 Q110.76 1188.18 113.098 1186.08 Q115.436 1183.97 115.436 1180.36 Q115.436 1176.75 113.098 1174.64 Q110.76 1172.54 106.756 1172.54 Q104.881 1172.54 103.006 1172.95 Q101.154 1173.37 99.2095 1174.25 L99.2095 1156.89 Z" fill="#000000" fill-rule="nonzero" fill-opacity="1" /><path clip-path="url(#clip520)" d="M53.7467 915.965 L61.3856 915.965 L61.3856 889.599 L53.0754 891.266 L53.0754 887.007 L61.3393 885.34 L66.0152 885.34 L66.0152 915.965 L73.654 915.965 L73.654 919.9 L53.7467 919.9 L53.7467 915.965 Z" fill="#000000" fill-rule="nonzero" fill-opacity="1" /><path clip-path="url(#clip520)" d="M83.0984 914.02 L87.9827 914.02 L87.9827 919.9 L83.0984 919.9 L83.0984 914.02 Z" fill="#000000" fill-rule="nonzero" fill-opacity="1" /><path clip-path="url(#clip520)" d="M108.168 888.419 Q104.557 888.419 102.728 891.983 Q100.922 895.525 100.922 902.655 Q100.922 909.761 102.728 913.326 Q104.557 916.868 108.168 916.868 Q111.802 916.868 113.608 913.326 Q115.436 909.761 115.436 902.655 Q115.436 895.525 113.608 891.983 Q111.802 888.419 108.168 888.419 M108.168 884.715 Q113.978 884.715 117.033 889.321 Q120.112 893.905 120.112 902.655 Q120.112 911.381 117.033 915.988 Q113.978 920.571 108.168 920.571 Q102.358 920.571 99.2789 915.988 Q96.2234 911.381 96.2234 902.655 Q96.2234 893.905 99.2789 889.321 Q102.358 884.715 108.168 884.715 Z" fill="#000000" fill-rule="nonzero" fill-opacity="1" /><path clip-path="url(#clip520)" d="M54.7421 644.417 L62.381 644.417 L62.381 618.051 L54.0708 619.718 L54.0708 615.459 L62.3347 613.792 L67.0106 613.792 L67.0106 644.417 L74.6494 644.417 L74.6494 648.352 L54.7421 648.352 L54.7421 644.417 Z" fill="#000000" fill-rule="nonzero" fill-opacity="1" /><path clip-path="url(#clip520)" d="M84.0938 642.472 L88.978 642.472 L88.978 648.352 L84.0938 648.352 L84.0938 642.472 Z" fill="#000000" fill-rule="nonzero" fill-opacity="1" /><path clip-path="url(#clip520)" d="M99.2095 613.792 L117.566 613.792 L117.566 617.727 L103.492 617.727 L103.492 626.199 Q104.51 625.852 105.529 625.69 Q106.547 625.505 107.566 625.505 Q113.353 625.505 116.733 628.676 Q120.112 631.848 120.112 637.264 Q120.112 642.843 116.64 645.945 Q113.168 649.023 106.848 649.023 Q104.672 649.023 102.404 648.653 Q100.159 648.283 97.7511 647.542 L97.7511 642.843 Q99.8345 643.977 102.057 644.533 Q104.279 645.088 106.756 645.088 Q110.76 645.088 113.098 642.982 Q115.436 640.875 115.436 637.264 Q115.436 633.653 113.098 631.547 Q110.76 629.44 106.756 629.44 Q104.881 629.44 103.006 629.857 Q101.154 630.273 99.2095 631.153 L99.2095 613.792 Z" fill="#000000" fill-rule="nonzero" fill-opacity="1" /><path clip-path="url(#clip520)" d="M56.9643 372.869 L73.2837 372.869 L73.2837 376.804 L51.3393 376.804 L51.3393 372.869 Q54.0014 370.114 58.5847 365.485 Q63.1911 360.832 64.3717 359.489 Q66.617 356.966 67.4967 355.23 Q68.3994 353.471 68.3994 351.781 Q68.3994 349.027 66.455 347.29 Q64.5337 345.554 61.4319 345.554 Q59.2328 345.554 56.7791 346.318 Q54.3486 347.082 51.5708 348.633 L51.5708 343.911 Q54.3949 342.777 56.8486 342.198 Q59.3023 341.619 61.3393 341.619 Q66.7096 341.619 69.9041 344.304 Q73.0985 346.99 73.0985 351.48 Q73.0985 353.61 72.2883 355.531 Q71.5013 357.429 69.3948 360.022 Q68.8161 360.693 65.7143 363.911 Q62.6124 367.105 56.9643 372.869 Z" fill="#000000" fill-rule="nonzero" fill-opacity="1" /><path clip-path="url(#clip520)" d="M83.0984 370.925 L87.9827 370.925 L87.9827 376.804 L83.0984 376.804 L83.0984 370.925 Z" fill="#000000" fill-rule="nonzero" fill-opacity="1" /><path clip-path="url(#clip520)" d="M108.168 345.323 Q104.557 345.323 102.728 348.888 Q100.922 352.429 100.922 359.559 Q100.922 366.665 102.728 370.23 Q104.557 373.772 108.168 373.772 Q111.802 373.772 113.608 370.23 Q115.436 366.665 115.436 359.559 Q115.436 352.429 113.608 348.888 Q111.802 345.323 108.168 345.323 M108.168 341.619 Q113.978 341.619 117.033 346.226 Q120.112 350.809 120.112 359.559 Q120.112 368.286 117.033 372.892 Q113.978 377.475 108.168 377.475 Q102.358 377.475 99.2789 372.892 Q96.2234 368.286 96.2234 359.559 Q96.2234 350.809 99.2789 346.226 Q102.358 341.619 108.168 341.619 Z" fill="#000000" fill-rule="nonzero" fill-opacity="1" /><path clip-path="url(#clip520)" d="M57.9597 101.321 L74.279 101.321 L74.279 105.256 L52.3347 105.256 L52.3347 101.321 Q54.9967 98.5665 59.58 93.9369 Q64.1865 89.2841 65.367 87.9416 Q67.6124 85.4184 68.492 83.6823 Q69.3948 81.9231 69.3948 80.2333 Q69.3948 77.4786 67.4504 75.7425 Q65.5291 74.0064 62.4272 74.0064 Q60.2282 74.0064 57.7745 74.7703 Q55.344 75.5342 52.5662 77.0851 L52.5662 72.3629 Q55.3903 71.2287 57.8439 70.65 Q60.2976 70.0713 62.3347 70.0713 Q67.705 70.0713 70.8994 72.7565 Q74.0939 75.4416 74.0939 79.9323 Q74.0939 82.062 73.2837 83.9832 Q72.4966 85.8814 70.3902 88.474 Q69.8115 89.1453 66.7096 92.3628 Q63.6078 95.5573 57.9597 101.321 Z" fill="#000000" fill-rule="nonzero" fill-opacity="1" /><path clip-path="url(#clip520)" d="M84.0938 99.3767 L88.978 99.3767 L88.978 105.256 L84.0938 105.256 L84.0938 99.3767 Z" fill="#000000" fill-rule="nonzero" fill-opacity="1" /><path clip-path="url(#clip520)" d="M99.2095 70.6963 L117.566 70.6963 L117.566 74.6314 L103.492 74.6314 L103.492 83.1036 Q104.51 82.7564 105.529 82.5944 Q106.547 82.4092 107.566 82.4092 Q113.353 82.4092 116.733 85.5805 Q120.112 88.7517 120.112 94.1684 Q120.112 99.747 116.64 102.849 Q113.168 105.928 106.848 105.928 Q104.672 105.928 102.404 105.557 Q100.159 105.187 97.7511 104.446 L97.7511 99.747 Q99.8345 100.881 102.057 101.437 Q104.279 101.992 106.756 101.992 Q110.76 101.992 113.098 99.8859 Q115.436 97.7795 115.436 94.1684 Q115.436 90.5573 113.098 88.4508 Q110.76 86.3443 106.756 86.3443 Q104.881 86.3443 103.006 86.761 Q101.154 87.1777 99.2095 88.0573 L99.2095 70.6963 Z" fill="#000000" fill-rule="nonzero" fill-opacity="1" /><polyline clip-path="url(#clip522)" style="stroke:#009af9; stroke-linecap:round; stroke-linejoin:round; stroke-width:4; stroke-opacity:1; fill:none" points="218.281,902.62 588.336,1445.72 958.39,359.524 1235.93,902.62 1513.47,631.072 1602.29,902.62 1691.1,359.524 1735.5,902.62 1797.18,359.524 1920.53,902.62 2290.59,87.9763 "/>
<path clip-path="url(#clip520)" d="M229.334 198.898 L550.201 198.898 L550.201 95.2176 L229.334 95.2176  Z" fill="#ffffff" fill-rule="evenodd" fill-opacity="1"/>
<polyline clip-path="url(#clip520)" style="stroke:#000000; stroke-linecap:round; stroke-linejoin:round; stroke-width:4; stroke-opacity:1; fill:none" points="229.334,198.898 550.201,198.898 550.201,95.2176 229.334,95.2176 229.334,198.898 "/>
<polyline clip-path="url(#clip520)" style="stroke:#009af9; stroke-linecap:round; stroke-linejoin:round; stroke-width:4; stroke-opacity:1; fill:none" points="253.741,147.058 400.184,147.058 "/>
<path clip-path="url(#clip520)" d="M441.095 128.319 L441.095 131.861 L437.021 131.861 Q434.73 131.861 433.827 132.787 Q432.947 133.713 432.947 136.12 L432.947 138.412 L439.961 138.412 L439.961 141.722 L432.947 141.722 L432.947 164.338 L428.665 164.338 L428.665 141.722 L424.591 141.722 L424.591 138.412 L428.665 138.412 L428.665 136.606 Q428.665 132.278 430.679 130.31 Q432.693 128.319 437.068 128.319 L441.095 128.319 Z" fill="#000000" fill-rule="nonzero" fill-opacity="1" /><path clip-path="url(#clip520)" d="M470.1 145.055 Q468.248 145.055 466.975 146.352 Q465.702 147.625 465.702 149.477 Q465.702 151.305 466.975 152.578 Q468.248 153.828 470.1 153.828 Q471.952 153.828 473.225 152.578 Q474.498 151.305 474.498 149.477 Q474.498 147.648 473.202 146.352 Q471.929 145.055 470.1 145.055 M470.1 142.069 Q471.581 142.069 472.947 142.648 Q474.313 143.203 475.308 144.268 Q476.373 145.31 476.905 146.629 Q477.438 147.949 477.438 149.477 Q477.438 152.532 475.285 154.662 Q473.155 156.768 470.054 156.768 Q466.929 156.768 464.845 154.685 Q462.762 152.602 462.762 149.477 Q462.762 146.375 464.892 144.222 Q467.021 142.069 470.1 142.069 Z" fill="#000000" fill-rule="nonzero" fill-opacity="1" /><path clip-path="url(#clip520)" d="M521.535 151.074 Q521.535 146.444 519.613 143.898 Q517.715 141.352 514.266 141.352 Q510.84 141.352 508.919 143.898 Q507.021 146.444 507.021 151.074 Q507.021 155.68 508.919 158.226 Q510.84 160.773 514.266 160.773 Q517.715 160.773 519.613 158.226 Q521.535 155.68 521.535 151.074 M525.794 161.12 Q525.794 167.74 522.854 170.958 Q519.914 174.199 513.85 174.199 Q511.604 174.199 509.614 173.851 Q507.623 173.527 505.748 172.833 L505.748 168.689 Q507.623 169.708 509.451 170.194 Q511.28 170.68 513.178 170.68 Q517.368 170.68 519.451 168.481 Q521.535 166.305 521.535 161.884 L521.535 159.777 Q520.215 162.069 518.155 163.203 Q516.095 164.338 513.225 164.338 Q508.456 164.338 505.539 160.703 Q502.623 157.069 502.623 151.074 Q502.623 145.055 505.539 141.421 Q508.456 137.787 513.225 137.787 Q516.095 137.787 518.155 138.921 Q520.215 140.055 521.535 142.347 L521.535 138.412 L525.794 138.412 L525.794 161.12 Z" fill="#000000" fill-rule="nonzero" fill-opacity="1" /></svg>
