<?xml version="1.0" encoding="utf-8"?>
<svg xmlns="http://www.w3.org/2000/svg" xmlns:xlink="http://www.w3.org/1999/xlink" width="600" height="400" viewBox="0 0 2400 1600">
<defs>
  <clipPath id="clip820">
    <rect x="0" y="0" width="2400" height="1600"/>
  </clipPath>
</defs>
<path clip-path="url(#clip820)" d="M0 1600 L2400 1600 L2400 0 L0 0  Z" fill="#ffffff" fill-rule="evenodd" fill-opacity="1"/>
<defs>
  <clipPath id="clip821">
    <rect x="480" y="0" width="1681" height="1600"/>
  </clipPath>
</defs>
<path clip-path="url(#clip820)" d="M110.881 1486.45 L2352.76 1486.45 L2352.76 47.2441 L110.881 47.2441  Z" fill="#ffffff" fill-rule="evenodd" fill-opacity="1"/>
<defs>
  <clipPath id="clip822">
    <rect x="110" y="47" width="2243" height="1440"/>
  </clipPath>
</defs>
<polyline clip-path="url(#clip822)" style="stroke:#000000; stroke-linecap:round; stroke-linejoin:round; stroke-width:2; stroke-opacity:0.1; fill:none" points="174.33,1486.45 174.33,47.2441 "/>
<polyline clip-path="url(#clip822)" style="stroke:#000000; stroke-linecap:round; stroke-linejoin:round; stroke-width:2; stroke-opacity:0.1; fill:none" points="690.178,1486.45 690.178,47.2441 "/>
<polyline clip-path="url(#clip822)" style="stroke:#000000; stroke-linecap:round; stroke-linejoin:round; stroke-width:2; stroke-opacity:0.1; fill:none" points="1206.03,1486.45 1206.03,47.2441 "/>
<polyline clip-path="url(#clip822)" style="stroke:#000000; stroke-linecap:round; stroke-linejoin:round; stroke-width:2; stroke-opacity:0.1; fill:none" points="1721.87,1486.45 1721.87,47.2441 "/>
<polyline clip-path="url(#clip822)" style="stroke:#000000; stroke-linecap:round; stroke-linejoin:round; stroke-width:2; stroke-opacity:0.1; fill:none" points="2237.72,1486.45 2237.72,47.2441 "/>
<polyline clip-path="url(#clip822)" style="stroke:#000000; stroke-linecap:round; stroke-linejoin:round; stroke-width:2; stroke-opacity:0.1; fill:none" points="110.881,1445.72 2352.76,1445.72 "/>
<polyline clip-path="url(#clip822)" style="stroke:#000000; stroke-linecap:round; stroke-linejoin:round; stroke-width:2; stroke-opacity:0.1; fill:none" points="110.881,1057.79 2352.76,1057.79 "/>
<polyline clip-path="url(#clip822)" style="stroke:#000000; stroke-linecap:round; stroke-linejoin:round; stroke-width:2; stroke-opacity:0.1; fill:none" points="110.881,669.865 2352.76,669.865 "/>
<polyline clip-path="url(#clip822)" style="stroke:#000000; stroke-linecap:round; stroke-linejoin:round; stroke-width:2; stroke-opacity:0.1; fill:none" points="110.881,281.939 2352.76,281.939 "/>
<polyline clip-path="url(#clip820)" style="stroke:#000000; stroke-linecap:round; stroke-linejoin:round; stroke-width:4; stroke-opacity:1; fill:none" points="110.881,1486.45 2352.76,1486.45 "/>
<polyline clip-path="url(#clip820)" style="stroke:#000000; stroke-linecap:round; stroke-linejoin:round; stroke-width:4; stroke-opacity:1; fill:none" points="174.33,1486.45 174.33,1467.55 "/>
<polyline clip-path="url(#clip820)" style="stroke:#000000; stroke-linecap:round; stroke-linejoin:round; stroke-width:4; stroke-opacity:1; fill:none" points="690.178,1486.45 690.178,1467.55 "/>
<polyline clip-path="url(#clip820)" style="stroke:#000000; stroke-linecap:round; stroke-linejoin:round; stroke-width:4; stroke-opacity:1; fill:none" points="1206.03,1486.45 1206.03,1467.55 "/>
<polyline clip-path="url(#clip820)" style="stroke:#000000; stroke-linecap:round; stroke-linejoin:round; stroke-width:4; stroke-opacity:1; fill:none" points="1721.87,1486.45 1721.87,1467.55 "/>
<polyline clip-path="url(#clip820)" style="stroke:#000000; stroke-linecap:round; stroke-linejoin:round; stroke-width:4; stroke-opacity:1; fill:none" points="2237.72,1486.45 2237.72,1467.55 "/>
<path clip-path="url(#clip820)" d="M144.087 1532.02 L173.763 1532.02 L173.763 1535.95 L144.087 1535.95 L144.087 1532.02 Z" fill="#000000" fill-rule="nonzero" fill-opacity="1" /><path clip-path="url(#clip820)" d="M184.666 1544.91 L192.305 1544.91 L192.305 1518.55 L183.994 1520.21 L183.994 1515.95 L192.258 1514.29 L196.934 1514.29 L196.934 1544.91 L204.573 1544.91 L204.573 1548.85 L184.666 1548.85 L184.666 1544.91 Z" fill="#000000" fill-rule="nonzero" fill-opacity="1" /><path clip-path="url(#clip820)" d="M690.178 1517.37 Q686.567 1517.37 684.738 1520.93 Q682.933 1524.47 682.933 1531.6 Q682.933 1538.71 684.738 1542.27 Q686.567 1545.82 690.178 1545.82 Q693.812 1545.82 695.618 1542.27 Q697.447 1538.71 697.447 1531.6 Q697.447 1524.47 695.618 1520.93 Q693.812 1517.37 690.178 1517.37 M690.178 1513.66 Q695.988 1513.66 699.044 1518.27 Q702.122 1522.85 702.122 1531.6 Q702.122 1540.33 699.044 1544.94 Q695.988 1549.52 690.178 1549.52 Q684.368 1549.52 681.289 1544.94 Q678.234 1540.33 678.234 1531.6 Q678.234 1522.85 681.289 1518.27 Q684.368 1513.66 690.178 1513.66 Z" fill="#000000" fill-rule="nonzero" fill-opacity="1" /><path clip-path="url(#clip820)" d="M1196.41 1544.91 L1204.05 1544.91 L1204.05 1518.55 L1195.74 1520.21 L1195.74 1515.95 L1204 1514.29 L1208.68 1514.29 L1208.68 1544.91 L1216.32 1544.91 L1216.32 1548.85 L1196.41 1548.85 L1196.41 1544.91 Z" fill="#000000" fill-rule="nonzero" fill-opacity="1" /><path clip-path="url(#clip820)" d="M1716.53 1544.91 L1732.85 1544.91 L1732.85 1548.85 L1710.9 1548.85 L1710.9 1544.91 Q1713.56 1542.16 1718.15 1537.53 Q1722.75 1532.88 1723.93 1531.53 Q1726.18 1529.01 1727.06 1527.27 Q1727.96 1525.51 1727.96 1523.82 Q1727.96 1521.07 1726.02 1519.33 Q1724.1 1517.6 1720.99 1517.6 Q1718.8 1517.6 1716.34 1518.36 Q1713.91 1519.13 1711.13 1520.68 L1711.13 1515.95 Q1713.96 1514.82 1716.41 1514.24 Q1718.86 1513.66 1720.9 1513.66 Q1726.27 1513.66 1729.47 1516.35 Q1732.66 1519.03 1732.66 1523.52 Q1732.66 1525.65 1731.85 1527.57 Q1731.06 1529.47 1728.96 1532.07 Q1728.38 1532.74 1725.28 1535.95 Q1722.17 1539.15 1716.53 1544.91 Z" fill="#000000" fill-rule="nonzero" fill-opacity="1" /><path clip-path="url(#clip820)" d="M2241.97 1530.21 Q2245.33 1530.93 2247.2 1533.2 Q2249.1 1535.47 2249.1 1538.8 Q2249.1 1543.92 2245.58 1546.72 Q2242.06 1549.52 2235.58 1549.52 Q2233.4 1549.52 2231.09 1549.08 Q2228.8 1548.66 2226.34 1547.81 L2226.34 1543.29 Q2228.29 1544.43 2230.6 1545.01 Q2232.92 1545.58 2235.44 1545.58 Q2239.84 1545.58 2242.13 1543.85 Q2244.45 1542.11 2244.45 1538.8 Q2244.45 1535.75 2242.29 1534.03 Q2240.16 1532.3 2236.34 1532.3 L2232.32 1532.3 L2232.32 1528.45 L2236.53 1528.45 Q2239.98 1528.45 2241.81 1527.09 Q2243.64 1525.7 2243.64 1523.11 Q2243.64 1520.45 2241.74 1519.03 Q2239.86 1517.6 2236.34 1517.6 Q2234.42 1517.6 2232.22 1518.01 Q2230.03 1518.43 2227.39 1519.31 L2227.39 1515.14 Q2230.05 1514.4 2232.36 1514.03 Q2234.7 1513.66 2236.76 1513.66 Q2242.09 1513.66 2245.19 1516.09 Q2248.29 1518.5 2248.29 1522.62 Q2248.29 1525.49 2246.65 1527.48 Q2245 1529.45 2241.97 1530.21 Z" fill="#000000" fill-rule="nonzero" fill-opacity="1" /><polyline clip-path="url(#clip820)" style="stroke:#000000; stroke-linecap:round; stroke-linejoin:round; stroke-width:4; stroke-opacity:1; fill:none" points="110.881,1486.45 110.881,47.2441 "/>
<polyline clip-path="url(#clip820)" style="stroke:#000000; stroke-linecap:round; stroke-linejoin:round; stroke-width:4; stroke-opacity:1; fill:none" points="110.881,1445.72 129.779,1445.72 "/>
<polyline clip-path="url(#clip820)" style="stroke:#000000; stroke-linecap:round; stroke-linejoin:round; stroke-width:4; stroke-opacity:1; fill:none" points="110.881,1057.79 129.779,1057.79 "/>
<polyline clip-path="url(#clip820)" style="stroke:#000000; stroke-linecap:round; stroke-linejoin:round; stroke-width:4; stroke-opacity:1; fill:none" points="110.881,669.865 129.779,669.865 "/>
<polyline clip-path="url(#clip820)" style="stroke:#000000; stroke-linecap:round; stroke-linejoin:round; stroke-width:4; stroke-opacity:1; fill:none" points="110.881,281.939 129.779,281.939 "/>
<path clip-path="url(#clip820)" d="M62.9365 1431.51 Q59.3254 1431.51 57.4967 1435.08 Q55.6912 1438.62 55.6912 1445.75 Q55.6912 1452.86 57.4967 1456.42 Q59.3254 1459.96 62.9365 1459.96 Q66.5707 1459.96 68.3763 1456.42 Q70.205 1452.86 70.205 1445.75 Q70.205 1438.62 68.3763 1435.08 Q66.5707 1431.51 62.9365 1431.51 M62.9365 1427.81 Q68.7467 1427.81 71.8022 1432.42 Q74.8809 1437 74.8809 1445.75 Q74.8809 1454.48 71.8022 1459.08 Q68.7467 1463.67 62.9365 1463.67 Q57.1264 1463.67 54.0477 1459.08 Q50.9921 1454.48 50.9921 1445.75 Q50.9921 1437 54.0477 1432.42 Q57.1264 1427.81 62.9365 1427.81 Z" fill="#000000" fill-rule="nonzero" fill-opacity="1" /><path clip-path="url(#clip820)" d="M54.9736 1071.13 L62.6124 1071.13 L62.6124 1044.77 L54.3023 1046.44 L54.3023 1042.18 L62.5661 1040.51 L67.242 1040.51 L67.242 1071.13 L74.8809 1071.13 L74.8809 1075.07 L54.9736 1075.07 L54.9736 1071.13 Z" fill="#000000" fill-rule="nonzero" fill-opacity="1" /><path clip-path="url(#clip820)" d="M58.5615 683.209 L74.8809 683.209 L74.8809 687.145 L52.9366 687.145 L52.9366 683.209 Q55.5986 680.455 60.1819 675.825 Q64.7883 671.172 65.9689 669.83 Q68.2143 667.307 69.0939 665.571 Q69.9967 663.811 69.9967 662.122 Q69.9967 659.367 68.0522 657.631 Q66.1309 655.895 63.0291 655.895 Q60.83 655.895 58.3763 656.659 Q55.9458 657.423 53.168 658.973 L53.168 654.251 Q55.9921 653.117 58.4458 652.538 Q60.8995 651.96 62.9365 651.96 Q68.3068 651.96 71.5013 654.645 Q74.6957 657.33 74.6957 661.821 Q74.6957 663.95 73.8855 665.872 Q73.0985 667.77 70.992 670.362 Q70.4133 671.034 67.3115 674.251 Q64.2096 677.446 58.5615 683.209 Z" fill="#000000" fill-rule="nonzero" fill-opacity="1" /><path clip-path="url(#clip820)" d="M67.7513 280.585 Q71.1078 281.302 72.9827 283.571 Q74.8809 285.839 74.8809 289.173 Q74.8809 294.289 71.3624 297.089 Q67.8439 299.89 61.3624 299.89 Q59.1865 299.89 56.8717 299.451 Q54.5801 299.034 52.1264 298.177 L52.1264 293.664 Q54.0708 294.798 56.3856 295.376 Q58.7004 295.955 61.2236 295.955 Q65.6217 295.955 67.9133 294.219 Q70.2281 292.483 70.2281 289.173 Q70.2281 286.117 68.0754 284.404 Q65.9457 282.668 62.1263 282.668 L58.0986 282.668 L58.0986 278.826 L62.3115 278.826 Q65.7606 278.826 67.5893 277.46 Q69.418 276.071 69.418 273.478 Q69.418 270.816 67.5198 269.404 Q65.6448 267.969 62.1263 267.969 Q60.205 267.969 58.006 268.386 Q55.8069 268.803 53.168 269.682 L53.168 265.516 Q55.8301 264.775 58.1449 264.404 Q60.4828 264.034 62.543 264.034 Q67.867 264.034 70.9689 266.465 Q74.0707 268.872 74.0707 272.992 Q74.0707 275.863 72.4272 277.853 Q70.7837 279.821 67.7513 280.585 Z" fill="#000000" fill-rule="nonzero" fill-opacity="1" /><polyline clip-path="url(#clip822)" style="stroke:#009af9; stroke-linecap:round; stroke-linejoin:round; stroke-width:4; stroke-opacity:1; fill:none" points="174.33,1057.79 690.178,1445.72 1206.03,669.865 1721.87,1057.79 2237.72,863.827 "/>
<polyline clip-path="url(#clip822)" style="stroke:#e26f46; stroke-linecap:round; stroke-linejoin:round; stroke-width:4; stroke-opacity:1; fill:none" points="174.33,1445.72 690.178,1057.79 1463.95,281.939 1773.46,1251.75 2289.31,87.9763 "/>
<path clip-path="url(#clip820)" d="M185.61 250.738 L432.969 250.738 L432.969 95.2176 L185.61 95.2176  Z" fill="#ffffff" fill-rule="evenodd" fill-opacity="1"/>
<polyline clip-path="url(#clip820)" style="stroke:#000000; stroke-linecap:round; stroke-linejoin:round; stroke-width:4; stroke-opacity:1; fill:none" points="185.61,250.738 432.969,250.738 432.969,95.2176 185.61,95.2176 185.61,250.738 "/>
<polyline clip-path="url(#clip820)" style="stroke:#009af9; stroke-linecap:round; stroke-linejoin:round; stroke-width:4; stroke-opacity:1; fill:none" points="210.52,147.058 359.978,147.058 "/>
<path clip-path="url(#clip820)" d="M401.392 128.319 L401.392 131.861 L397.318 131.861 Q395.027 131.861 394.124 132.787 Q393.244 133.713 393.244 136.12 L393.244 138.412 L400.258 138.412 L400.258 141.722 L393.244 141.722 L393.244 164.338 L388.962 164.338 L388.962 141.722 L384.888 141.722 L384.888 138.412 L388.962 138.412 L388.962 136.606 Q388.962 132.278 390.976 130.31 Q392.99 128.319 397.365 128.319 L401.392 128.319 Z" fill="#000000" fill-rule="nonzero" fill-opacity="1" /><polyline clip-path="url(#clip820)" style="stroke:#e26f46; stroke-linecap:round; stroke-linejoin:round; stroke-width:4; stroke-opacity:1; fill:none" points="210.52,198.898 359.978,198.898 "/>
<path clip-path="url(#clip820)" d="M403.8 202.914 Q403.8 198.284 401.878 195.738 Q399.98 193.192 396.531 193.192 Q393.105 193.192 391.184 195.738 Q389.286 198.284 389.286 202.914 Q389.286 207.52 391.184 210.066 Q393.105 212.613 396.531 212.613 Q399.98 212.613 401.878 210.066 Q403.8 207.52 403.8 202.914 M408.059 212.96 Q408.059 219.58 405.119 222.798 Q402.179 226.039 396.115 226.039 Q393.869 226.039 391.879 225.691 Q389.888 225.367 388.013 224.673 L388.013 220.529 Q389.888 221.548 391.717 222.034 Q393.545 222.52 395.443 222.52 Q399.633 222.52 401.716 220.321 Q403.8 218.145 403.8 213.724 L403.8 211.617 Q402.48 213.909 400.42 215.043 Q398.36 216.178 395.49 216.178 Q390.721 216.178 387.804 212.543 Q384.888 208.909 384.888 202.914 Q384.888 196.895 387.804 193.261 Q390.721 189.627 395.49 189.627 Q398.36 189.627 400.42 190.761 Q402.48 191.895 403.8 194.187 L403.8 190.252 L408.059 190.252 L408.059 212.96 Z" fill="#000000" fill-rule="nonzero" fill-opacity="1" /></svg>
